<svg xmlns="http://www.w3.org/2000/svg" xmlns:xlink="http://www.w3.org/1999/xlink" width="1080" zoomAndPan="magnify" viewBox="0 0 810 809.999993" height="1080" preserveAspectRatio="xMidYMid meet" version="1.0"><defs><clipPath id="e15ed3b045"><path d="M 226 305 L 585.378906 305 L 585.378906 629 L 226 629 Z M 226 305 " clip-rule="nonzero"/></clipPath></defs><g clip-path="url(#e15ed3b045)"><path fill="#000000" d="M 304.898438 310.382812 C 270.945312 321.65625 244.332031 349.566406 233.707031 385.136719 C 225.386719 413.046875 220.128906 459.453125 242.796875 521.617188 C 243.019531 522.273438 265.359375 583.675781 320.121094 616.835938 C 347.0625 633.253906 380.792969 632.488281 405.984375 615.085938 L 406.96875 614.429688 C 407.953125 613.664062 408.941406 613.003906 409.816406 612.347656 C 411.242188 611.144531 412.882812 610.597656 414.527344 610.597656 C 416.167969 610.597656 417.703125 611.144531 419.125 612.128906 C 420.441406 613.222656 421.753906 614.210938 422.851562 614.867188 L 423.070312 614.976562 C 448.257812 632.488281 481.992188 633.144531 508.933594 616.726562 C 557.996094 586.957031 580.886719 534.96875 585.378906 523.695312 C 584.390625 523.695312 583.40625 523.695312 582.421875 523.695312 L 582.203125 523.695312 C 556.136719 523.695312 531.492188 513.519531 513.09375 495.132812 C 494.585938 476.632812 484.289062 452.117188 484.289062 425.960938 C 484.179688 379.882812 516.488281 340.484375 560.1875 330.414062 C 549.675781 321.4375 537.515625 314.542969 524.375 310.164062 C 466.21875 290.902344 424.601562 331.617188 420.113281 336.324219 L 419.894531 336.542969 C 417.046875 339.386719 412.335938 339.386719 409.488281 336.542969 L 409.269531 336.324219 C 404.558594 331.835938 363.050781 291.121094 304.898438 310.382812 Z M 304.898438 310.382812 " fill-opacity="1" fill-rule="evenodd"/></g><path fill="#000000" d="M 437.527344 194.152344 C 421.863281 209.804688 414.308594 233.003906 415.730469 259.929688 C 442.78125 261.351562 466 253.691406 481.664062 237.929688 C 497.324219 222.28125 504.988281 199.078125 503.457031 172.152344 C 476.40625 170.730469 453.1875 178.390625 437.527344 194.152344 Z M 437.527344 194.152344 " fill-opacity="1" fill-rule="evenodd"/></svg>