<svg xmlns="http://www.w3.org/2000/svg" viewBox="0 0 211 37"><defs><style>.cls-1{fill:#6d6e71;}.cls-2{fill:#005192;}</style></defs><title>Essilorluxottica_Logo_Col_RGB.svg </title><g id="Calque_1" data-name="Calque 1"><path class="cls-1" d="M42.43035,11.9015V14.254H37.93448v2.38969h4.49588v2.31568H37.93448V21.423h4.49588v2.35247H35.1522V11.9015Z"/><path class="cls-1" d="M49.42759,11.73486a5.303,5.303,0,0,1,3.6289,1.24094l-1.73394,1.7413c-1.02842-.53715-2.21786-1.18554-2.88313-.27788-.58433.815-.01991,1.6305,1.51233,2.149a9.4118,9.4118,0,0,1,1.95556.94445,3.162,3.162,0,0,1,1.492,2.63078,4.0132,4.0132,0,0,1-3.26619,3.63063,5.58047,5.58047,0,0,1-1.22969.148,5.95862,5.95862,0,0,1-3.99205-1.7413l1.83479-1.96335a3.4956,3.4956,0,0,0,2.29836,1.16693c.82629-.01861,1.67335-.889,1.37079-1.61145-.56442-1.27817-3.4878-1.27817-4.43528-2.7048a3.10606,3.10606,0,0,1-.42331-2.871,3.65379,3.65379,0,0,1,3.4878-2.48232Z"/><path class="cls-1" d="M59.46488,11.73486a5.303,5.303,0,0,1,3.6289,1.24094l-1.73394,1.7413c-1.02842-.53715-2.21786-1.18554-2.88313-.27788-.58433.815-.01991,1.6305,1.51233,2.149a9.4118,9.4118,0,0,1,1.95556.94445,3.162,3.162,0,0,1,1.492,2.63078,4.0132,4.0132,0,0,1-3.26619,3.63063,5.58047,5.58047,0,0,1-1.22969.148,5.95862,5.95862,0,0,1-3.99205-1.7413l1.83479-1.96335a3.4956,3.4956,0,0,0,2.29836,1.16693c.82629-.01861,1.67335-.889,1.37079-1.61145-.56442-1.27817-3.4878-1.27817-4.43528-2.7048a3.10606,3.10606,0,0,1-.42331-2.871,3.65379,3.65379,0,0,1,3.4878-2.48232Z"/><path class="cls-1" d="M69.14311,11.9015v11.874H66.36127V11.9015Z"/><path class="cls-1" d="M75.8894,11.9015v9.31768h3.81026v2.55633H73.127V11.9015Z"/><path class="cls-1" d="M81.31774,17.8292c.02034-2.20444,1.23012-5.42734,5.84676-6.03894.18136-.01818.38306-.01818.60467-.03679a7.661,7.661,0,0,1,4.476,1.51882,5.92745,5.92745,0,0,1,2.09666,4.74216A6.0954,6.0954,0,0,1,92.346,22.33071a7.18867,7.18867,0,0,1-9.657-.57437,6.04539,6.04539,0,0,1-1.37123-3.85311Zm10.10068-.20387a3.44056,3.44056,0,0,0-3.56831-3.48217,3.4872,3.4872,0,0,0-3.52805,2.77838,4.83843,4.83843,0,0,0-.12119.98167,3.52629,3.52629,0,0,0,3.58865,3.66786,3.47721,3.47721,0,0,0,3.6289-3.79728Z"/><path class="cls-1" d="M100.96088,11.9015c2.17717,0,3.70941.92627,4.11281,2.7048a3.64584,3.64584,0,0,1-2.33862,4.22319l3.60856,4.946h-3.18525l-3.34669-4.59413h-.32246v4.59413H96.707V11.9015Zm-1.47164,2.11181V17.1068h.625c1.43139,0,2.11657-.46314,2.17717-1.61145v-.074c0-.79685-.786-1.408-2.13691-1.408Z"/><path class="cls-2" d="M112.516,11.9015v9.31768h3.81026v2.55633h-6.57263V11.9015Z"/><path class="cls-2" d="M121.58946,11.9015v7.27988a2.12526,2.12526,0,0,0,2.31871,2.223,2.16322,2.16322,0,0,0,2.29836-2.37108V11.9015h2.74159v7.68761a4.76586,4.76586,0,0,1-1.18944,2.96363,5.36449,5.36449,0,0,1-3.79035,1.38941A5.16589,5.16589,0,0,1,120.4,22.88647a4.44843,4.44843,0,0,1-1.55215-3.16793v-7.817Z"/><path class="cls-2" d="M134.47048,11.9015l2.60048,3.64925,2.68142-3.64925h2.88313l-4.0929,5.64982,4.49588,6.22419h-2.88269l-3.06448-4.22362-3.06448,4.22362H131.0831l4.53613-6.20558-4.11238-5.66843Z"/><path class="cls-2" d="M143.904,17.8292c.02034-2.20444,1.23012-5.42734,5.84676-6.03894.18136-.01818.38306-.01818.60467-.03679a7.661,7.661,0,0,1,4.476,1.51882,5.92745,5.92745,0,0,1,2.09666,4.74216,6.0954,6.0954,0,0,1-1.99581,4.31625,7.18867,7.18867,0,0,1-9.657-.57437,6.04539,6.04539,0,0,1-1.37123-3.85311Zm10.10068-.20387a3.44056,3.44056,0,0,0-3.56831-3.48217,3.4872,3.4872,0,0,0-3.52805,2.77838,4.83844,4.83844,0,0,0-.12119.98167,3.52629,3.52629,0,0,0,3.58865,3.66786,3.47721,3.47721,0,0,0,3.6289-3.79728Z"/><path class="cls-2" d="M166.54329,11.9015V14.421h-2.96363v9.35447h-2.78184V14.421h-2.94372V11.9015Z"/><path class="cls-2" d="M177.524,11.9015V14.421h-2.96363v9.35447h-2.78184V14.421h-2.94372V11.9015Z"/><path class="cls-2" d="M183.02884,11.9015v11.874H180.247V11.9015Z"/><path class="cls-2" d="M192.089,11.73486a9.94418,9.94418,0,0,1,3.66916.79642v2.90823c-3.2861-1.92612-5.68531-1.20372-6.55185.31511-1.25,2.20444-.54451,5.03865,2.01572,5.5758a6.15744,6.15744,0,0,0,4.53613-.96349v2.87144a12.71571,12.71571,0,0,1-3.72932.70379,6.08882,6.08882,0,0,1-6.31033-6.05712,6.17311,6.17311,0,0,1,5.90692-6.13157Z"/><path class="cls-2" d="M204.86919,11.9015l5.28191,11.874h-2.80218l-1.04833-2.33386h-4.95944l-1.00808,2.33386h-2.78227l5.16115-11.874Zm-2.58057,7.39112h3.06448l-1.55259-3.50078Z"/><path class="cls-1" d="M.79346,6.02919a.82916.82916,0,0,1-.2817-.63677V1.33726A.75944.75944,0,0,1,.79346.72408a.97234.97234,0,0,1,.642-.23584H25.2502a.98736.98736,0,0,1,.69311.25943.78276.78276,0,0,1,.283.5896V5.39242a.85629.85629,0,0,1-.283.61319.94189.94189,0,0,1-.69311.283H1.43548A.92148.92148,0,0,1,.79346,6.02919Z"/><path class="cls-1" d="M10.52446,20.80933a.82916.82916,0,0,1-.2817-.63677V16.1174a.75944.75944,0,0,1,.2817-.61319.97234.97234,0,0,1,.642-.23584H25.3034a.98736.98736,0,0,1,.69311.25943.78276.78276,0,0,1,.283.5896v4.05516a.85629.85629,0,0,1-.283.61319.94189.94189,0,0,1-.69311.283H11.16647A.92148.92148,0,0,1,10.52446,20.80933Z"/><path class="cls-2" d="M6.72435,28.54068a.82388.82388,0,0,0,.3079.61188.96666.96666,0,0,0,.66691.283H25.35581a.95322.95322,0,0,1,.66691.23584.799.799,0,0,1,.2568.61319v4.05516a.82.82,0,0,1-.2568.5896.89729.89729,0,0,1-.66691.25943H1.43758a.92148.92148,0,0,1-.642-.25943.78123.78123,0,0,1-.2817-.5896V10.24341a.75866.75866,0,0,1,.2817-.61188.97234.97234,0,0,1,.642-.23584H5.80064a.94948.94948,0,0,1,.66691.23584.79614.79614,0,0,1,.2568.61188Z"/></g></svg>