<svg xmlns="http://www.w3.org/2000/svg" xmlns:xlink="http://www.w3.org/1999/xlink" width="1080" zoomAndPan="magnify" viewBox="0 0 810 809.999993" height="1080" preserveAspectRatio="xMidYMid meet" version="1.0"><defs><clipPath id="69978ab2ff"><path d="M 131.148438 349.824219 L 298 349.824219 L 298 460.074219 L 131.148438 460.074219 Z M 131.148438 349.824219 " clip-rule="nonzero"/></clipPath><clipPath id="f784acb514"><path d="M 145 349.824219 L 298 349.824219 L 298 460.074219 L 145 460.074219 Z M 145 349.824219 " clip-rule="nonzero"/></clipPath><clipPath id="373f261973"><path d="M 145.300781 371.355469 C 153.527344 358.683594 165.394531 349.824219 179.003906 349.824219 C 186.890625 349.824219 194.726562 352.15625 202.910156 358.835938 C 211.859375 366.136719 221.402344 378.160156 233.304688 397.976562 L 237.570312 405.089844 C 247.875 422.242188 253.734375 431.070312 257.164062 435.230469 C 261.578125 440.578125 264.667969 442.167969 268.679688 442.167969 C 278.863281 442.167969 281.402344 432.820312 281.402344 422.117188 L 297.226562 421.621094 C 297.226562 432.808594 295.019531 441.027344 291.265625 447.519531 C 287.640625 453.800781 280.570312 460.074219 268.679688 460.074219 C 261.289062 460.074219 254.738281 458.46875 247.496094 451.640625 C 241.929688 446.402344 235.421875 437.089844 230.414062 428.71875 L 215.519531 403.851562 C 208.046875 391.375 201.195312 382.070312 197.226562 377.855469 C 192.957031 373.324219 187.472656 367.851562 178.71875 367.851562 C 171.632812 367.851562 165.613281 372.820312 160.578125 380.421875 Z M 145.300781 371.355469 " clip-rule="nonzero"/></clipPath><linearGradient x1="18.688834" gradientTransform="matrix(0.577506, 0, 0, 0.577225, 131.159411, 349.825027)" y1="114.863072" x2="290.711428" gradientUnits="userSpaceOnUse" y2="128.601587" id="1364f07591"><stop stop-opacity="1" stop-color="rgb(0%, 39.199829%, 88.198853%)" offset="0"/><stop stop-opacity="1" stop-color="rgb(0%, 39.199829%, 88.198853%)" offset="0.0353718"/><stop stop-opacity="1" stop-color="rgb(0%, 39.199829%, 88.198853%)" offset="0.25"/><stop stop-opacity="1" stop-color="rgb(0%, 39.199829%, 88.198853%)" offset="0.375"/><stop stop-opacity="1" stop-color="rgb(0%, 39.199829%, 88.198853%)" offset="0.4375"/><stop stop-opacity="1" stop-color="rgb(0%, 39.259338%, 88.250732%)" offset="0.453125"/><stop stop-opacity="1" stop-color="rgb(0%, 39.466858%, 88.430786%)" offset="0.46875"/><stop stop-opacity="1" stop-color="rgb(0%, 39.761353%, 88.685608%)" offset="0.484375"/><stop stop-opacity="1" stop-color="rgb(0%, 40.055847%, 88.94043%)" offset="0.5"/><stop stop-opacity="1" stop-color="rgb(0%, 40.350342%, 89.193726%)" offset="0.515625"/><stop stop-opacity="1" stop-color="rgb(0%, 40.644836%, 89.448547%)" offset="0.53125"/><stop stop-opacity="1" stop-color="rgb(0%, 40.939331%, 89.703369%)" offset="0.546875"/><stop stop-opacity="1" stop-color="rgb(0%, 41.233826%, 89.958191%)" offset="0.5625"/><stop stop-opacity="1" stop-color="rgb(0%, 41.52832%, 90.213013%)" offset="0.578125"/><stop stop-opacity="1" stop-color="rgb(0%, 41.822815%, 90.467834%)" offset="0.59375"/><stop stop-opacity="1" stop-color="rgb(0%, 42.11731%, 90.722656%)" offset="0.609375"/><stop stop-opacity="1" stop-color="rgb(0%, 42.411804%, 90.975952%)" offset="0.625"/><stop stop-opacity="1" stop-color="rgb(0%, 42.706299%, 91.230774%)" offset="0.640625"/><stop stop-opacity="1" stop-color="rgb(0%, 43.000793%, 91.485596%)" offset="0.65625"/><stop stop-opacity="1" stop-color="rgb(0%, 43.295288%, 91.740417%)" offset="0.671875"/><stop stop-opacity="1" stop-color="rgb(0%, 43.589783%, 91.995239%)" offset="0.6875"/><stop stop-opacity="1" stop-color="rgb(0%, 43.885803%, 92.250061%)" offset="0.703125"/><stop stop-opacity="1" stop-color="rgb(0%, 44.180298%, 92.504883%)" offset="0.71875"/><stop stop-opacity="1" stop-color="rgb(0%, 44.474792%, 92.758179%)" offset="0.734375"/><stop stop-opacity="1" stop-color="rgb(0%, 44.769287%, 93.013%)" offset="0.75"/><stop stop-opacity="1" stop-color="rgb(0%, 44.99054%, 93.205261%)" offset="0.757812"/><stop stop-opacity="1" stop-color="rgb(0%, 45.222473%, 93.406677%)" offset="0.765625"/><stop stop-opacity="1" stop-color="rgb(0%, 45.568848%, 93.704224%)" offset="0.773438"/><stop stop-opacity="1" stop-color="rgb(0%, 45.941162%, 94.026184%)" offset="0.78125"/><stop stop-opacity="1" stop-color="rgb(0%, 46.313477%, 94.348145%)" offset="0.789062"/><stop stop-opacity="1" stop-color="rgb(0%, 46.685791%, 94.670105%)" offset="0.796875"/><stop stop-opacity="1" stop-color="rgb(0%, 47.058105%, 94.992065%)" offset="0.804687"/><stop stop-opacity="1" stop-color="rgb(0%, 47.431946%, 95.314026%)" offset="0.8125"/><stop stop-opacity="1" stop-color="rgb(0%, 47.80426%, 95.635986%)" offset="0.820312"/><stop stop-opacity="1" stop-color="rgb(0%, 48.176575%, 95.957947%)" offset="0.828125"/><stop stop-opacity="1" stop-color="rgb(0%, 48.548889%, 96.279907%)" offset="0.835938"/><stop stop-opacity="1" stop-color="rgb(0%, 48.921204%, 96.601868%)" offset="0.84375"/><stop stop-opacity="1" stop-color="rgb(0%, 49.293518%, 96.923828%)" offset="0.851562"/><stop stop-opacity="1" stop-color="rgb(0%, 49.665833%, 97.245789%)" offset="0.859375"/><stop stop-opacity="1" stop-color="rgb(0%, 50.038147%, 97.567749%)" offset="0.867187"/><stop stop-opacity="1" stop-color="rgb(0%, 50.411987%, 97.889709%)" offset="0.875"/><stop stop-opacity="1" stop-color="rgb(0%, 50.784302%, 98.21167%)" offset="0.882812"/><stop stop-opacity="1" stop-color="rgb(0%, 50.984192%, 98.38562%)" offset="0.890625"/><stop stop-opacity="1" stop-color="rgb(0%, 50.999451%, 98.399353%)" offset="0.90625"/><stop stop-opacity="1" stop-color="rgb(0%, 50.999451%, 98.399353%)" offset="0.9375"/><stop stop-opacity="1" stop-color="rgb(0%, 50.999451%, 98.399353%)" offset="0.964628"/><stop stop-opacity="1" stop-color="rgb(0%, 50.999451%, 98.399353%)" offset="1"/></linearGradient><clipPath id="3fd5430b2e"><path d="M 131.148438 349.824219 L 180 349.824219 L 180 447 L 131.148438 447 Z M 131.148438 349.824219 " clip-rule="nonzero"/></clipPath><clipPath id="1907a8bfe5"><path d="M 178.71875 367.851562 C 171.632812 367.851562 165.613281 372.820312 160.578125 380.421875 C 153.457031 391.164062 149.097656 407.167969 149.097656 422.53125 C 149.097656 428.871094 150.488281 433.734375 152.308594 436.679688 L 137.015625 446.746094 C 133.089844 440.21875 131.160156 431.652344 131.160156 421.890625 C 131.160156 404.140625 136.035156 385.640625 145.300781 371.355469 C 153.527344 358.683594 165.394531 349.824219 179.003906 349.824219 Z M 178.71875 367.851562 " clip-rule="nonzero"/></clipPath><linearGradient x1="45" gradientTransform="matrix(0.577506, 0, 0, 0.577225, 131.159411, 349.825027)" y1="167.909993" x2="45" gradientUnits="userSpaceOnUse" y2="-0.00000411296" id="1b80d35d5c"><stop stop-opacity="1" stop-color="rgb(0%, 50.999451%, 98.399353%)" offset="0"/><stop stop-opacity="1" stop-color="rgb(0%, 50.999451%, 98.399353%)" offset="0.125"/><stop stop-opacity="1" stop-color="rgb(0%, 50.999451%, 98.399353%)" offset="0.15625"/><stop stop-opacity="1" stop-color="rgb(0%, 50.999451%, 98.399353%)" offset="0.171875"/><stop stop-opacity="1" stop-color="rgb(0%, 50.897217%, 98.3078%)" offset="0.179688"/><stop stop-opacity="1" stop-color="rgb(0%, 50.688171%, 98.120117%)" offset="0.1875"/><stop stop-opacity="1" stop-color="rgb(0%, 50.476074%, 97.929382%)" offset="0.195312"/><stop stop-opacity="1" stop-color="rgb(0%, 50.263977%, 97.738647%)" offset="0.203125"/><stop stop-opacity="1" stop-color="rgb(0%, 50.05188%, 97.549438%)" offset="0.210938"/><stop stop-opacity="1" stop-color="rgb(0%, 49.839783%, 97.358704%)" offset="0.21875"/><stop stop-opacity="1" stop-color="rgb(0%, 49.627686%, 97.167969%)" offset="0.226563"/><stop stop-opacity="1" stop-color="rgb(0%, 49.415588%, 96.977234%)" offset="0.234375"/><stop stop-opacity="1" stop-color="rgb(0%, 49.205017%, 96.786499%)" offset="0.242188"/><stop stop-opacity="1" stop-color="rgb(0%, 48.99292%, 96.595764%)" offset="0.25"/><stop stop-opacity="1" stop-color="rgb(0%, 48.780823%, 96.406555%)" offset="0.257813"/><stop stop-opacity="1" stop-color="rgb(0%, 48.568726%, 96.21582%)" offset="0.265625"/><stop stop-opacity="1" stop-color="rgb(0%, 48.356628%, 96.025085%)" offset="0.273438"/><stop stop-opacity="1" stop-color="rgb(0%, 48.144531%, 95.834351%)" offset="0.28125"/><stop stop-opacity="1" stop-color="rgb(0%, 47.932434%, 95.643616%)" offset="0.289063"/><stop stop-opacity="1" stop-color="rgb(0%, 47.720337%, 95.452881%)" offset="0.296875"/><stop stop-opacity="1" stop-color="rgb(0%, 47.50824%, 95.263672%)" offset="0.304688"/><stop stop-opacity="1" stop-color="rgb(0%, 47.296143%, 95.072937%)" offset="0.3125"/><stop stop-opacity="1" stop-color="rgb(0%, 47.084045%, 94.882202%)" offset="0.320313"/><stop stop-opacity="1" stop-color="rgb(0%, 46.871948%, 94.691467%)" offset="0.328125"/><stop stop-opacity="1" stop-color="rgb(0%, 46.659851%, 94.500732%)" offset="0.335938"/><stop stop-opacity="1" stop-color="rgb(0%, 46.447754%, 94.309998%)" offset="0.34375"/><stop stop-opacity="1" stop-color="rgb(0%, 46.235657%, 94.120789%)" offset="0.351562"/><stop stop-opacity="1" stop-color="rgb(0%, 46.02356%, 93.930054%)" offset="0.359375"/><stop stop-opacity="1" stop-color="rgb(0%, 45.811462%, 93.739319%)" offset="0.367188"/><stop stop-opacity="1" stop-color="rgb(0%, 45.599365%, 93.548584%)" offset="0.375"/><stop stop-opacity="1" stop-color="rgb(0%, 45.387268%, 93.357849%)" offset="0.382812"/><stop stop-opacity="1" stop-color="rgb(0%, 45.175171%, 93.167114%)" offset="0.390625"/><stop stop-opacity="1" stop-color="rgb(0%, 44.963074%, 92.977905%)" offset="0.398438"/><stop stop-opacity="1" stop-color="rgb(0%, 44.750977%, 92.78717%)" offset="0.40625"/><stop stop-opacity="1" stop-color="rgb(0%, 44.538879%, 92.596436%)" offset="0.414063"/><stop stop-opacity="1" stop-color="rgb(0%, 44.326782%, 92.405701%)" offset="0.421875"/><stop stop-opacity="1" stop-color="rgb(0%, 44.114685%, 92.214966%)" offset="0.429688"/><stop stop-opacity="1" stop-color="rgb(0%, 43.902588%, 92.024231%)" offset="0.4375"/><stop stop-opacity="1" stop-color="rgb(0%, 43.690491%, 91.835022%)" offset="0.445313"/><stop stop-opacity="1" stop-color="rgb(0%, 43.478394%, 91.644287%)" offset="0.453125"/><stop stop-opacity="1" stop-color="rgb(0%, 43.266296%, 91.453552%)" offset="0.460938"/><stop stop-opacity="1" stop-color="rgb(0%, 43.055725%, 91.262817%)" offset="0.46875"/><stop stop-opacity="1" stop-color="rgb(0%, 42.843628%, 91.072083%)" offset="0.476563"/><stop stop-opacity="1" stop-color="rgb(0%, 42.631531%, 90.881348%)" offset="0.484375"/><stop stop-opacity="1" stop-color="rgb(0%, 42.419434%, 90.692139%)" offset="0.492188"/><stop stop-opacity="1" stop-color="rgb(0%, 42.207336%, 90.501404%)" offset="0.5"/><stop stop-opacity="1" stop-color="rgb(0%, 41.995239%, 90.310669%)" offset="0.507813"/><stop stop-opacity="1" stop-color="rgb(0%, 41.783142%, 90.119934%)" offset="0.515625"/><stop stop-opacity="1" stop-color="rgb(0%, 41.571045%, 89.929199%)" offset="0.523438"/><stop stop-opacity="1" stop-color="rgb(0%, 41.358948%, 89.738464%)" offset="0.53125"/><stop stop-opacity="1" stop-color="rgb(0%, 41.146851%, 89.549255%)" offset="0.539063"/><stop stop-opacity="1" stop-color="rgb(0%, 40.934753%, 89.358521%)" offset="0.546875"/><stop stop-opacity="1" stop-color="rgb(0%, 40.722656%, 89.167786%)" offset="0.554688"/><stop stop-opacity="1" stop-color="rgb(0%, 40.510559%, 88.977051%)" offset="0.5625"/><stop stop-opacity="1" stop-color="rgb(0%, 40.298462%, 88.786316%)" offset="0.570312"/><stop stop-opacity="1" stop-color="rgb(0%, 40.086365%, 88.595581%)" offset="0.578125"/><stop stop-opacity="1" stop-color="rgb(0%, 39.874268%, 88.406372%)" offset="0.585938"/><stop stop-opacity="1" stop-color="rgb(0%, 39.66217%, 88.215637%)" offset="0.59375"/><stop stop-opacity="1" stop-color="rgb(0%, 39.378357%, 87.95929%)" offset="0.625"/><stop stop-opacity="1" stop-color="rgb(0%, 39.199829%, 87.799072%)" offset="0.75"/><stop stop-opacity="1" stop-color="rgb(0%, 39.199829%, 87.799072%)" offset="1"/></linearGradient><clipPath id="f86c3aca2d"><path d="M 332 353 L 678.648438 353 L 678.648438 460.074219 L 332 460.074219 Z M 332 353 " clip-rule="nonzero"/></clipPath></defs><g clip-path="url(#69978ab2ff)"><path fill="#0081fb" d="M 149.097656 422.53125 C 149.097656 428.871094 150.488281 433.734375 152.308594 436.679688 C 154.691406 440.535156 158.25 442.167969 161.875 442.167969 C 166.554688 442.167969 170.835938 441.007812 179.082031 429.609375 C 185.6875 420.472656 193.472656 407.644531 198.710938 399.605469 L 207.582031 385.980469 C 213.742188 376.523438 220.875 366.003906 229.050781 358.875 C 235.726562 353.058594 242.929688 349.824219 250.175781 349.824219 C 262.34375 349.824219 273.9375 356.871094 282.808594 370.089844 C 292.515625 384.566406 297.226562 402.804688 297.226562 421.621094 C 297.226562 432.808594 295.019531 441.027344 291.265625 447.519531 C 287.640625 453.800781 280.570312 460.074219 268.679688 460.074219 L 268.679688 442.167969 C 278.863281 442.167969 281.402344 432.820312 281.402344 422.117188 C 281.402344 406.867188 277.847656 389.941406 270.007812 377.847656 C 264.449219 369.273438 257.242188 364.03125 249.3125 364.03125 C 240.734375 364.03125 233.835938 370.496094 226.078125 382.023438 C 221.953125 388.148438 217.722656 395.609375 212.96875 404.03125 L 207.738281 413.296875 C 197.226562 431.921875 194.5625 436.167969 189.308594 443.167969 C 180.097656 455.429688 172.230469 460.074219 161.878906 460.074219 C 149.59375 460.074219 141.824219 454.757812 137.015625 446.746094 C 133.089844 440.21875 131.160156 431.652344 131.160156 421.890625 Z M 149.097656 422.53125 " fill-opacity="1" fill-rule="nonzero"/></g><g clip-path="url(#f784acb514)"><g clip-path="url(#373f261973)"><path fill="url(#1364f07591)" d="M 145.300781 349.824219 L 145.300781 460.074219 L 297.226562 460.074219 L 297.226562 349.824219 Z M 145.300781 349.824219 " fill-rule="nonzero"/></g></g><g clip-path="url(#3fd5430b2e)"><g clip-path="url(#1907a8bfe5)"><path fill="url(#1b80d35d5c)" d="M 131.160156 349.824219 L 131.160156 446.746094 L 179.003906 446.746094 L 179.003906 349.824219 Z M 131.160156 349.824219 " fill-rule="nonzero"/></g></g><g clip-path="url(#f86c3aca2d)"><path fill="#192830" d="M 332.097656 353.3125 L 352.847656 353.3125 L 388.125 417.105469 L 423.410156 353.3125 L 443.710938 353.3125 L 443.710938 458.136719 L 426.785156 458.136719 L 426.785156 377.796875 L 395.84375 433.429688 L 379.960938 433.429688 L 349.023438 377.796875 L 349.023438 458.136719 L 332.097656 458.136719 Z M 496.75 392.394531 C 484.609375 392.394531 477.300781 401.527344 475.550781 412.835938 L 516.75 412.835938 C 515.898438 401.1875 509.175781 392.394531 496.75 392.394531 Z M 458.765625 419.277344 C 458.765625 395.484375 474.152344 378.167969 497.042969 378.167969 C 519.5625 378.167969 533.003906 395.265625 533.003906 420.546875 L 533.003906 425.191406 L 475.550781 425.191406 C 477.585938 437.492188 485.753906 445.78125 498.921875 445.78125 C 509.425781 445.78125 515.992188 442.578125 522.21875 436.71875 L 531.210938 447.726562 C 522.738281 455.515625 511.960938 460.003906 498.320312 460.003906 C 473.539062 460.003906 458.765625 441.945312 458.765625 419.277344 Z M 553.53125 393.894531 L 537.949219 393.894531 L 537.949219 380.042969 L 553.53125 380.042969 L 553.53125 357.132812 L 569.863281 357.132812 L 569.863281 380.042969 L 593.535156 380.042969 L 593.535156 393.894531 L 569.863281 393.894531 L 569.863281 429.007812 C 569.863281 440.996094 573.695312 445.257812 583.121094 445.257812 C 587.421875 445.257812 589.890625 444.886719 593.535156 444.28125 L 593.535156 457.984375 C 588.996094 459.265625 584.664062 459.855469 579.972656 459.855469 C 562.34375 459.855469 553.53125 450.226562 553.53125 430.953125 Z M 662.304688 407.367188 C 659.023438 399.089844 651.707031 392.996094 640.953125 392.996094 C 626.976562 392.996094 618.03125 402.90625 618.03125 419.050781 C 618.03125 434.792969 626.265625 445.183594 640.28125 445.183594 C 651.300781 445.183594 659.167969 438.777344 662.304688 430.804688 Z M 678.636719 458.136719 L 662.601562 458.136719 L 662.601562 447.203125 C 658.121094 453.640625 649.96875 460.003906 636.761719 460.003906 C 615.519531 460.003906 601.324219 442.234375 601.324219 419.050781 C 601.324219 395.652344 615.859375 378.167969 637.660156 378.167969 C 648.4375 378.167969 656.890625 382.472656 662.601562 390.074219 L 662.601562 380.042969 L 678.636719 380.042969 Z M 678.636719 458.136719 " fill-opacity="1" fill-rule="nonzero"/></g></svg>