<svg xmlns="http://www.w3.org/2000/svg" xmlns:xlink="http://www.w3.org/1999/xlink" width="1080" zoomAndPan="magnify" viewBox="0 0 810 809.999993" height="1080" preserveAspectRatio="xMidYMid meet" version="1.0"><defs><clipPath id="3382d69d11"><path d="M 173.417969 173.417969 L 395 173.417969 L 395 395 L 173.417969 395 Z M 173.417969 173.417969 " clip-rule="nonzero"/></clipPath><clipPath id="5834a194da"><path d="M 416 173.417969 L 636.917969 173.417969 L 636.917969 395 L 416 395 Z M 416 173.417969 " clip-rule="nonzero"/></clipPath><clipPath id="26f1cbc93e"><path d="M 173.417969 416 L 395 416 L 395 636.917969 L 173.417969 636.917969 Z M 173.417969 416 " clip-rule="nonzero"/></clipPath><clipPath id="f095b0273c"><path d="M 416 416 L 636.917969 416 L 636.917969 636.917969 L 416 636.917969 Z M 416 416 " clip-rule="nonzero"/></clipPath></defs><g clip-path="url(#3382d69d11)"><path fill="#f35325" d="M 173.417969 173.417969 L 394.132812 173.417969 L 394.132812 394.132812 L 173.417969 394.132812 Z M 173.417969 173.417969 " fill-opacity="1" fill-rule="nonzero"/></g><g clip-path="url(#5834a194da)"><path fill="#81bc06" d="M 416.203125 173.417969 L 636.917969 173.417969 L 636.917969 394.132812 L 416.203125 394.132812 Z M 416.203125 173.417969 " fill-opacity="1" fill-rule="nonzero"/></g><g clip-path="url(#26f1cbc93e)"><path fill="#05a6f0" d="M 173.417969 416.203125 L 394.132812 416.203125 L 394.132812 636.917969 L 173.417969 636.917969 Z M 173.417969 416.203125 " fill-opacity="1" fill-rule="nonzero"/></g><g clip-path="url(#f095b0273c)"><path fill="#ffba08" d="M 416.203125 416.203125 L 636.917969 416.203125 L 636.917969 636.917969 L 416.203125 636.917969 Z M 416.203125 416.203125 " fill-opacity="1" fill-rule="nonzero"/></g></svg>